<svg width="32" height="32" viewBox="0 0 32 32" fill="none" xmlns="http://www.w3.org/2000/svg">
<g clip-path="url(#clip0_440_7)">
<path opacity="0.25" d="M31.9688 9.40809C31.8939 7.7078 31.6189 6.53888 31.225 5.52598C30.8187 4.45082 30.1936 3.48823 29.3746 2.68802C28.5744 1.87537 27.6054 1.2439 26.5427 0.843915C25.524 0.450039 24.3612 0.175083 22.6609 0.100117C20.9479 0.0188025 20.4041 0 16.0595 0C11.7149 0 11.1711 0.0188025 9.46447 0.0937683C7.76419 0.168734 6.59526 0.443934 5.58262 0.837566C4.50721 1.2439 3.54462 1.86902 2.74442 2.68802C1.93176 3.48823 1.30053 4.45717 0.90031 5.51988C0.506435 6.53888 0.231479 7.70146 0.156514 9.40174C0.075199 11.1147 0.0563965 11.6585 0.0563965 16.0031C0.0563965 20.3477 0.075199 20.8915 0.150165 22.5982C0.22513 24.2984 0.50033 25.4674 0.894206 26.4803C1.30053 27.5554 1.93176 28.518 2.74442 29.3182C3.54462 30.1309 4.51356 30.7624 5.57627 31.1623C6.59526 31.5562 7.75784 31.8312 9.45837 31.9061C11.1648 31.9813 11.7088 31.9999 16.0534 31.9999C20.398 31.9999 20.9418 31.9813 22.6484 31.9061C24.3487 31.8312 25.5176 31.5562 26.5303 31.1623C28.6809 30.3309 30.3811 28.6306 31.2126 26.4803C31.6062 25.4613 31.8814 24.2984 31.9564 22.5982C32.0314 20.8915 32.0502 20.3477 32.0502 16.0031C32.0502 11.6585 32.0438 11.1147 31.9688 9.40809ZM29.0872 22.4731C29.0183 24.0359 28.7558 24.8799 28.537 25.4425C27.9993 26.8365 26.8929 27.943 25.4988 28.4807C24.9362 28.6995 24.0862 28.962 22.5295 29.0306C20.8417 29.1058 20.3355 29.1243 16.0659 29.1243C11.7962 29.1243 11.2837 29.1058 9.60195 29.0306C8.03915 28.962 7.19523 28.6995 6.63263 28.4807C5.93889 28.2243 5.30742 27.8179 4.79487 27.2866C4.26351 26.7677 3.85718 26.1426 3.60079 25.4488C3.38199 24.8862 3.11949 24.0359 3.05087 22.4795C2.97566 20.7917 2.95711 20.2852 2.95711 16.0156C2.95711 11.7459 2.97566 11.2334 3.05087 9.55192C3.11949 7.98911 3.38199 7.14519 3.60079 6.58258C3.85718 5.8886 4.26351 5.25737 4.80121 4.74458C5.31987 4.21323 5.94499 3.8069 6.63897 3.55074C7.20158 3.33195 8.05185 3.06945 9.6083 3.00059C11.2961 2.92562 11.8026 2.90682 16.072 2.90682C20.3479 2.90682 20.8541 2.92562 22.5359 3.00059C24.0987 3.06945 24.9426 3.33195 25.5052 3.55074C26.1989 3.8069 26.8304 4.21323 27.3429 4.74458C27.8743 5.26348 28.2806 5.8886 28.537 6.58258C28.7558 7.14519 29.0183 7.99521 29.0872 9.55192C29.1621 11.2397 29.181 11.7459 29.181 16.0156C29.181 20.2852 29.1621 20.7853 29.0872 22.4731Z" fill="white"/>
<path opacity="0.25" d="M16.0592 7.7832C11.521 7.7832 7.83887 11.4651 7.83887 16.0036C7.83887 20.542 11.521 24.2239 16.0592 24.2239C20.5977 24.2239 24.2796 20.542 24.2796 16.0036C24.2796 11.4651 20.5977 7.7832 16.0592 7.7832ZM16.0592 21.3359C13.115 21.3359 10.7269 18.948 10.7269 16.0036C10.7269 13.0591 13.115 10.6712 16.0592 10.6712C19.0036 10.6712 21.3916 13.0591 21.3916 16.0036C21.3916 18.948 19.0036 21.3359 16.0592 21.3359Z" fill="white"/>
<path opacity="0.25" d="M26.5259 7.45815C26.5259 8.51793 25.6666 9.37723 24.6066 9.37723C23.5468 9.37723 22.6875 8.51793 22.6875 7.45815C22.6875 6.39812 23.5468 5.53906 24.6066 5.53906C25.6666 5.53906 26.5259 6.39812 26.5259 7.45815Z" fill="white"/>
</g>
<defs>
<clipPath id="clip0_440_7">
<rect width="32" height="32" fill="white"/>
</clipPath>
</defs>
</svg>
