<svg width="32" height="32" viewBox="0 0 32 32" fill="none" xmlns="http://www.w3.org/2000/svg">
<path opacity="0.25" d="M3.06951 15.0701C5.79759 13.2557 8.84286 11.7414 11.6882 10.2193C16.5833 7.72624 21.4979 5.27641 26.462 2.99564C27.4278 2.60704 29.1633 2.22706 29.3334 3.95524C29.2402 6.40155 28.8569 8.83354 28.594 11.2655C27.9267 16.6137 27.1554 21.9435 26.4033 27.2741C26.1441 29.0497 24.302 29.9689 23.1233 28.8326C20.2906 26.5223 17.4361 24.2344 14.6395 21.8705C13.7235 20.7466 14.5729 19.1325 15.3911 18.3299C17.7242 15.5537 20.1985 13.195 22.4096 10.2753C23.0061 8.53621 21.2437 10.0018 20.6624 10.451C17.4684 13.1086 14.3525 15.9285 10.985 18.2642C9.26491 19.4075 7.26007 18.4305 5.54073 17.7926C3.99915 17.0219 1.74012 16.2454 3.06935 15.0703L3.06951 15.0701Z" fill="white"/>
</svg>
