<svg width="32" height="32" viewBox="0 0 32 32" fill="none" xmlns="http://www.w3.org/2000/svg">
<path opacity="0.25" d="M2.18772 30.546L4.15427 23.3198C2.85847 21.0985 2.17768 18.5722 2.1819 16.0005C2.1819 7.96708 8.6939 1.45508 16.7274 1.45508C24.7608 1.45508 31.2728 7.96708 31.2728 16.0005C31.2728 24.034 24.7608 30.546 16.7274 30.546C14.1569 30.5501 11.6316 29.8699 9.411 28.5751L2.18772 30.546ZM11.4779 9.1758C11.2901 9.18747 11.1065 9.23694 10.9383 9.32126C10.7805 9.41061 10.6364 9.52231 10.5106 9.65289C10.3361 9.81726 10.2372 9.9598 10.131 10.098C9.59341 10.7976 9.30425 11.6564 9.30918 12.5387C9.31209 13.2514 9.49827 13.9453 9.78918 14.594C10.3841 15.906 11.363 17.2951 12.6561 18.5823C12.9674 18.8922 13.2714 19.2034 13.5986 19.4929C15.2036 20.9059 17.1161 21.9249 19.1841 22.4689L20.0117 22.5954C20.2808 22.61 20.5499 22.5896 20.8204 22.5765C21.2441 22.5547 21.6577 22.44 22.0321 22.2405C22.2735 22.1125 22.387 22.0485 22.5892 21.9205C22.5892 21.9205 22.6517 21.8798 22.771 21.7896C22.9674 21.6442 23.0881 21.5409 23.251 21.3707C23.3717 21.2456 23.4764 21.0987 23.5564 20.9314C23.6699 20.6943 23.7834 20.242 23.8299 19.8653C23.8648 19.5773 23.8546 19.4202 23.8503 19.3227C23.8444 19.1671 23.715 19.0056 23.5739 18.9373L22.7274 18.5576C22.7274 18.5576 21.4619 18.0063 20.6895 17.6543C20.6081 17.6189 20.5208 17.5986 20.4321 17.5947C20.3326 17.5845 20.232 17.5957 20.1372 17.6276C20.0423 17.6594 19.9554 17.7112 19.8823 17.7794V17.7765C19.875 17.7765 19.7775 17.8594 18.7259 19.1336C18.6655 19.2147 18.5824 19.276 18.4871 19.3097C18.3917 19.3434 18.2885 19.3479 18.1906 19.3227C18.0959 19.2974 18.003 19.2653 17.9128 19.2267C17.7324 19.1511 17.6699 19.122 17.5463 19.0682L17.539 19.0653C16.7069 18.7019 15.9364 18.2112 15.2554 17.6107C15.0721 17.4507 14.9019 17.2762 14.7274 17.1074C14.1551 16.5594 13.6564 15.9395 13.2437 15.2631L13.1579 15.1249C13.0963 15.032 13.0464 14.9319 13.0095 14.8267C12.9543 14.6129 13.0983 14.4413 13.0983 14.4413C13.0983 14.4413 13.4517 14.0543 13.6161 13.8449C13.7529 13.6708 13.8806 13.4897 13.9986 13.3023C14.1703 13.026 14.2241 12.7423 14.1339 12.5227C13.7266 11.5278 13.3048 10.5373 12.8714 9.55399C12.7855 9.35908 12.531 9.21944 12.2997 9.1918C12.2212 9.18308 12.1426 9.17435 12.0641 9.16853C11.8687 9.15883 11.673 9.16077 11.4779 9.17435V9.1758Z" fill="white"/>
</svg>
