<svg width="100%" height="100%" viewBox="0 0 128 128" fill="none" xmlns="http://www.w3.org/2000/svg">
<path d="M64 128C99.3462 128 128 99.3462 128 64C128 28.6538 99.3462 0 64 0C28.6538 0 0 28.6538 0 64C0 99.3462 28.6538 128 64 128Z" fill="white"/>
<path d="M69.224 47.4391C69.224 53.2295 69.015 58.5028 68.5971 63.2592C68.178 67.9574 67.6556 72.6459 67.03 77.3215H60.9706C60.3451 72.6459 59.8226 67.9574 59.4035 63.2592C58.965 57.9972 58.7559 52.7189 58.7767 47.4391V28H69.224V47.4391ZM71 94.0722C71 95.9334 70.3732 97.5533 69.1195 98.932C67.8658 100.311 66.1594 101 64.0003 101C61.8412 101 60.1348 100.311 58.8811 98.932C57.6494 97.6097 56.9764 95.8706 57.0006 94.0722C57.0006 92.211 57.6275 90.5911 58.8811 89.2125C60.1348 87.8338 61.8412 87.1445 64.0003 87.1445C66.1594 87.1445 67.8658 87.8338 69.1195 89.2125C70.3732 90.5911 71 92.211 71 94.0722Z" fill="black"/>
</svg>
