<svg width="80" height="121" viewBox="0 0 80 121" fill="none" xmlns="http://www.w3.org/2000/svg">
<path d="M60.8344 0.0253906L54.5221 10.4732L37.5515 38.5613V35.8148L54.5221 7.72674L59.1751 0.0253906H60.8344Z" fill="#B21919"/>
<path d="M12.6447 48.4062H4.15942V111.604H12.6447V48.4062Z" fill="white"/>
<path d="M29.5759 0.0253906H21.0906V111.657H29.5759V0.0253906Z" fill="white"/>
<path d="M29.6155 6.39296V7.76613L12.6447 35.8542L4.98906 48.525L4.76298 48.8995L4.16408 48.525H4.15942V47.147L21.1302 19.0589L29.0119 6.01367L29.6155 6.39296Z" fill="white"/>
<path d="M12.6447 48.5597V34.5156L4.15942 48.5597H12.6447Z" fill="white"/>
<path d="M46.037 0.0256634V42.1578L37.5515 55.1216V0.0253906L46.037 0.0254438V0.0256634Z" fill="#B11B1A"/>
<path d="M62.9684 0.0253906H54.4829V17.3105H62.9684V0.0253906Z" fill="#B11B1A"/>
<path d="M62.9684 25.8926H54.4829V86.4143H62.9684V25.8926Z" fill="white"/>
<path d="M62.9684 95.1113H54.4829V112.396H62.9684V95.1113Z" fill="white"/>
<path d="M79.8996 0.0253906H71.4141V112.378H79.8996V0.0253906Z" fill="white"/>
<path d="M63.0077 28.1878V29.561L46.037 57.6491L38.1548 70.6944L37.5515 70.3199V68.942L54.5221 40.8539L62.4041 27.8086L63.0077 28.1878Z" fill="white"/>
<path d="M79.939 28.1878V29.561L62.9684 57.6491L55.0863 70.6944L54.4829 70.3199V68.942L71.4535 40.8539L79.3357 27.8086L79.939 28.1878Z" fill="white"/>
<path d="M46.037 56.3105L37.5515 70.3546V112.487H46.037" fill="white"/>
<path d="M33.868 110.92H-0.0734863V112.36H33.868V110.92Z" fill="white"/>
<path fill-rule="evenodd" clip-rule="evenodd" d="M54.4829 90.8096L58.7259 86.4883L62.9684 90.8096L58.7254 95.1309L54.4829 90.8096Z" fill="#B11B1A"/>
<path d="M1.23888 118.749C1.16867 119.121 1.04292 119.376 0.861837 119.514H3.33566V116.433H1.42751L1.38223 117.332C1.35708 117.906 1.30914 118.378 1.23888 118.749ZM4.48968 119.514V120.966H3.98422V119.99H0.431983V120.966H-0.0734863V119.514H0.152813C0.419299 119.498 0.600327 119.299 0.695738 118.915C0.791416 118.53 0.856752 117.993 0.891963 117.301L0.944782 115.949H3.87142V119.514H4.48968Z" fill="white"/>
<path d="M7.87839 119.418C8.09446 119.277 8.25542 119.073 8.36111 118.807V118.146H7.11656C6.43761 118.146 6.0983 118.387 6.0983 118.868C6.0983 119.104 6.18611 119.29 6.36227 119.425C6.53821 119.561 6.78479 119.629 7.10162 119.629C7.40305 119.629 7.66193 119.559 7.87839 119.418ZM8.48172 116.345C8.75821 116.609 8.89643 116.999 8.89643 117.516V120.021H8.38385V119.391C8.26302 119.601 8.08574 119.764 7.8519 119.882C7.618 120 7.34018 120.059 7.01869 120.059C6.57589 120.059 6.22384 119.952 5.96249 119.736C5.70098 119.521 5.57031 119.237 5.57031 118.884C5.57031 118.541 5.69205 118.264 5.93622 118.054C6.18012 117.844 6.5685 117.739 7.10162 117.739H8.36111V117.493C8.36111 117.145 8.26549 116.88 8.0744 116.698C7.8831 116.516 7.60436 116.425 7.23717 116.425C6.98567 116.425 6.74444 116.468 6.51322 116.552C6.28179 116.637 6.08311 116.753 5.91722 116.902L5.67599 116.494C5.87687 116.32 6.11816 116.186 6.39994 116.091C6.68157 115.996 6.97807 115.949 7.28998 115.949C7.80797 115.949 8.20528 116.081 8.48172 116.345Z" fill="white"/>
<path d="M15.7494 115.949V119.99H10.2734V115.949H10.809V119.514H12.7548V115.949H13.2906V119.514H15.2139V115.949H15.7494Z" fill="white"/>
<path d="M19.1657 119.418C19.3818 119.277 19.5428 119.073 19.6485 118.807V118.146H18.4039C17.725 118.146 17.3856 118.387 17.3856 118.868C17.3856 119.104 17.4735 119.29 17.6496 119.425C17.8255 119.561 18.0721 119.629 18.3889 119.629C18.6904 119.629 18.9492 119.559 19.1657 119.418ZM19.7691 116.345C20.0456 116.609 20.1838 116.999 20.1838 117.516V120.021H19.6712V119.391C19.5504 119.601 19.3731 119.764 19.1392 119.882C18.9053 120 18.6275 120.059 18.306 120.059C17.8632 120.059 17.5111 119.952 17.2498 119.736C16.9883 119.521 16.8577 119.237 16.8577 118.884C16.8577 118.541 16.9794 118.264 17.2235 118.054C17.4675 117.844 17.8559 117.739 18.3889 117.739H19.6485V117.493C19.6485 117.145 19.5528 116.88 19.3618 116.698C19.1705 116.516 18.8917 116.425 18.5245 116.425C18.273 116.425 18.0317 116.468 17.8006 116.552C17.5691 116.637 17.3705 116.753 17.2046 116.902L16.9633 116.494C17.1642 116.32 17.4055 116.186 17.6873 116.091C17.9689 115.996 18.2654 115.949 18.5773 115.949C19.0953 115.949 19.4926 116.081 19.7691 116.345Z" fill="white"/>
<path d="M23.4421 115.949H23.9775V119.161L26.625 115.949H27.1002V119.99H26.5648V116.779L23.9249 119.99H23.4421V115.949Z" fill="white"/>
<path d="M34.9317 115.949V119.99H34.4416V116.794L32.835 119.498H32.5938L30.9871 116.787V119.99H30.4968V115.949H31.0399L32.722 118.861L34.434 115.949H34.9317Z" fill="white"/>
<path d="M37.1174 116.79C36.8583 117.039 36.7114 117.363 36.6762 117.762H39.4895C39.4543 117.363 39.3071 117.039 39.0483 116.79C38.7892 116.542 38.4663 116.418 38.0791 116.418C37.6969 116.418 37.3762 116.542 37.1174 116.79ZM39.9948 118.169H36.6762C36.7063 118.589 36.8648 118.929 37.1513 119.187C37.4378 119.446 37.8001 119.575 38.2373 119.575C38.4837 119.575 38.7103 119.53 38.9163 119.441C39.1223 119.351 39.3009 119.219 39.4518 119.045L39.7535 119.398C39.5774 119.613 39.3575 119.777 39.0935 119.89C38.8296 120.003 38.5393 120.059 38.2224 120.059C37.815 120.059 37.4543 119.971 37.1402 119.794C36.8256 119.617 36.5807 119.373 36.4046 119.06C36.2287 118.748 36.1406 118.394 36.1406 118C36.1406 117.606 36.2247 117.252 36.3932 116.94C36.5618 116.628 36.793 116.385 37.0871 116.21C37.3814 116.036 37.712 115.949 38.0791 115.949C38.446 115.949 38.7756 116.036 39.0672 116.21C39.3588 116.385 39.5876 116.626 39.7535 116.936C39.9194 117.246 40.0023 117.601 40.0023 118L39.9948 118.169Z" fill="white"/>
<path d="M41.6857 118.749C41.6154 119.121 41.4896 119.376 41.3086 119.514H43.7824V116.433H41.8743L41.829 117.332C41.8038 117.906 41.7559 118.378 41.6857 118.749ZM44.9365 119.514V120.966H44.431V119.99H40.8787V120.966H40.3733V119.514H40.5996C40.866 119.498 41.0471 119.299 41.1425 118.915C41.2381 118.53 41.3035 117.993 41.3387 117.301L41.3916 115.949H44.3181V119.514H44.9365Z" fill="white"/>
<path d="M48.5664 119.391C48.7374 119.278 48.8228 119.102 48.8228 118.861C48.8228 118.62 48.745 118.442 48.5892 118.327C48.4331 118.212 48.1867 118.154 47.8498 118.154H46.5375V119.56H47.7972C48.139 119.56 48.3954 119.503 48.5664 119.391ZM46.5375 117.747H47.7292C48.0358 117.747 48.271 117.688 48.4344 117.57C48.5979 117.452 48.6797 117.281 48.6797 117.055C48.6797 116.83 48.5979 116.661 48.4344 116.548C48.271 116.436 48.0358 116.379 47.7292 116.379H46.5375V117.747ZM49.351 118.891C49.351 119.245 49.2226 119.516 48.9662 119.706C48.7098 119.895 48.3276 119.99 47.8197 119.99H46.0171V115.949H47.7669C48.2195 115.949 48.574 116.039 48.8306 116.218C49.0868 116.397 49.215 116.653 49.215 116.986C49.215 117.207 49.1561 117.395 49.0378 117.551C48.9196 117.707 48.7551 117.824 48.5437 117.901C49.0819 118.029 49.351 118.359 49.351 118.891Z" fill="white"/>
<path d="M51.2265 116.79C50.9674 117.039 50.8205 117.363 50.7853 117.762H53.5987C53.5634 117.363 53.4163 117.039 53.1574 116.79C52.8983 116.542 52.5755 116.418 52.1882 116.418C51.806 116.418 51.4854 116.542 51.2265 116.79ZM54.1039 118.169H50.7853C50.8154 118.589 50.9739 118.929 51.2604 119.187C51.5469 119.446 51.9092 119.575 52.3465 119.575C52.5928 119.575 52.8194 119.53 53.0254 119.441C53.2314 119.351 53.41 119.219 53.561 119.045L53.8626 119.398C53.6865 119.613 53.4666 119.777 53.2027 119.89C52.9387 120.003 52.6484 120.059 52.3315 120.059C51.9242 120.059 51.5635 119.971 51.2493 119.794C50.9347 119.617 50.6899 119.373 50.5137 119.06C50.3378 118.748 50.2498 118.394 50.2498 118C50.2498 117.606 50.3338 117.252 50.5023 116.94C50.6709 116.628 50.9021 116.385 51.1962 116.21C51.4905 116.036 51.8212 115.949 52.1882 115.949C52.5552 115.949 52.8847 116.036 53.1763 116.21C53.468 116.385 53.6967 116.626 53.8626 116.936C54.0285 117.246 54.1115 117.601 54.1115 118L54.1039 118.169Z" fill="white"/>
<path d="M55.7953 118.749C55.7251 119.121 55.5993 119.376 55.4182 119.514H57.892V116.433H55.9839L55.9386 117.332C55.9134 117.906 55.8655 118.378 55.7953 118.749ZM59.046 119.514V120.966H58.5406V119.99H54.9884V120.966H54.4829V119.514H54.7092C54.9756 119.498 55.1567 119.299 55.2521 118.915C55.3478 118.53 55.4131 117.993 55.4483 117.301L55.5012 115.949H58.4278V119.514H59.046Z" fill="white"/>
<path d="M62.5287 119.356C62.7173 119.2 62.8116 118.971 62.8116 118.669C62.8116 118.372 62.7184 118.152 62.5324 118.008C62.3462 117.865 62.0673 117.79 61.6952 117.785L60.6618 117.77V119.568L61.6952 119.583C62.062 119.588 62.34 119.513 62.5287 119.356ZM62.9661 117.716C63.2249 117.937 63.3545 118.254 63.3545 118.669C63.3545 119.099 63.2149 119.429 62.9358 119.66C62.6568 119.891 62.2533 120.003 61.7251 119.998L60.1265 119.99V115.949H60.6618V117.363L61.8308 117.378C62.3288 117.383 62.707 117.496 62.9661 117.716Z" fill="white"/>
</svg>
