<svg width="40" height="40" viewBox="0 0 40 40" fill="none" xmlns="http://www.w3.org/2000/svg">
<rect width="40" height="40" rx="8" fill="white" fill-opacity="0.1"/>
<path d="M27.4401 20.9994C27.2201 20.9994 26.9901 20.9294 26.7701 20.8794C26.3246 20.7812 25.8868 20.6509 25.4601 20.4894C24.9962 20.3206 24.4862 20.3294 24.0284 20.514C23.5706 20.6986 23.1972 21.046 22.9801 21.4894L22.7601 21.9394C21.7861 21.3976 20.8911 20.7246 20.1001 19.9394C19.3149 19.1484 18.6419 18.2534 18.1001 17.2794L18.5201 16.9994C18.9635 16.7823 19.3109 16.4089 19.4955 15.9511C19.6801 15.4932 19.6889 14.9833 19.5201 14.5194C19.3613 14.0918 19.231 13.6542 19.1301 13.2094C19.0801 12.9894 19.0401 12.7594 19.0101 12.5294C18.8887 11.825 18.5197 11.1871 17.9697 10.7306C17.4197 10.2741 16.7248 10.029 16.0101 10.0394H13.0101C12.5791 10.0353 12.1524 10.1242 11.7588 10.2999C11.3653 10.4756 11.0142 10.7341 10.7295 11.0577C10.4449 11.3812 10.2332 11.7624 10.1091 12.1751C9.98494 12.5878 9.95118 13.0224 10.0101 13.4494C10.5428 17.6388 12.4561 21.5313 15.4478 24.512C18.4394 27.4928 22.3388 29.3919 26.5301 29.9094H26.9101C27.6475 29.9105 28.3595 29.6399 28.9101 29.1494C29.2265 28.8664 29.4792 28.5196 29.6516 28.1317C29.8239 27.7438 29.9121 27.3238 29.9101 26.8994V23.8994C29.8979 23.2048 29.6449 22.5359 29.1944 22.007C28.744 21.4782 28.1239 21.122 27.4401 20.9994ZM27.9401 26.9994C27.9399 27.1414 27.9095 27.2817 27.8509 27.411C27.7923 27.5403 27.7068 27.6557 27.6001 27.7494C27.4887 27.8464 27.3581 27.9188 27.2168 27.9619C27.0755 28.005 26.9267 28.0177 26.7801 27.9994C23.035 27.5192 19.5563 25.8059 16.8928 23.1297C14.2293 20.4535 12.5325 16.9667 12.0701 13.2194C12.0542 13.0729 12.0681 12.9247 12.1111 12.7838C12.1541 12.6428 12.2252 12.5121 12.3201 12.3994C12.4138 12.2927 12.5292 12.2072 12.6585 12.1486C12.7878 12.09 12.9281 12.0596 13.0701 12.0594H16.0701C16.3026 12.0542 16.5297 12.1303 16.7122 12.2745C16.8948 12.4186 17.0213 12.6219 17.0701 12.8494C17.1101 13.1227 17.1601 13.3927 17.2201 13.6594C17.3356 14.1865 17.4894 14.7046 17.6801 15.2094L16.2801 15.8594C16.1604 15.9143 16.0527 15.9923 15.9633 16.089C15.8738 16.1856 15.8043 16.299 15.7588 16.4226C15.7132 16.5462 15.6926 16.6775 15.6979 16.8091C15.7033 16.9407 15.7346 17.0699 15.7901 17.1894C17.2293 20.2721 19.7073 22.7502 22.7901 24.1894C23.0336 24.2894 23.3066 24.2894 23.5501 24.1894C23.6748 24.1448 23.7894 24.0758 23.8873 23.9866C23.9851 23.8973 24.0643 23.7895 24.1201 23.6694L24.7401 22.2694C25.2571 22.4543 25.7847 22.6079 26.3201 22.7294C26.5868 22.7894 26.8568 22.8394 27.1301 22.8794C27.3575 22.9282 27.5608 23.0547 27.705 23.2372C27.8492 23.4198 27.9253 23.6468 27.9201 23.8794L27.9401 26.9994Z" fill="white"/>
</svg>
